<!-- icon666.com - MILLIONS vector ICONS FREE -->
<svg clip-rule="evenodd" fill-rule="evenodd" image-rendering="optimizeQuality" shape-rendering="geometricPrecision"
     text-rendering="geometricPrecision" viewBox="0 0 1.7 1.5" xmlns="http://www.w3.org/2000/svg">
    <g id="Layer_x0020_1">
        <g fill-rule="nonzero">

            <path d="m.853331.674059c.0826654 0 .157516.0335157.211693.087689.0541772.0541811.087689.129031.087689.211693 0 .0826654-.0335157.157516-.087689.211693-.0541772.0541732-.129028.087689-.211693.087689-.0826654 0-.157516-.0335157-.211693-.087689-.0541732-.0541772-.087689-.129028-.087689-.211693 0-.0826614.0335118-.157512.087689-.211693.0541772-.0541732.129028-.087689.211693-.087689zm.178701.120681c-.0457283-.0457244-.108913-.0740118-.178701-.0740118-.0697874 0-.132972.0282874-.178701.0740118-.0457244.0457283-.0740118.108913-.0740118.178701 0 .0697874.0282874.132972.0740118.178701.0457283.0457244.108913.0740118.178701.0740118.0697874 0 .132972-.0282874.178701-.0740118.0457244-.0457283.0740118-.108913.0740118-.178701 0-.0697874-.0282874-.132972-.0740118-.178701z"
                  fill="#000000" style="fill: rgba(241, 6, 6, 0.8);"></path>
            <path d="m.740717 1.07648c-.00911024.00911024-.00911024.0238819 0 .0329921.00911024.00911024.0238819.00911024.0329921 0 .0219803-.0219764.0508031-.0329724.079622-.0329724s.0576417.0109961.079622.0329724c.00911024.00911024.0238819.00911024.0329921 0 .00911024-.00911024.00911024-.0238819 0-.0329921-.0310984-.0310945-.0718622-.0466496-.112614-.0466496-.040752 0-.0815157.0155551-.112614.0466496z"
                  fill="#000000" style="fill: rgba(241, 6, 6, 0.8);"></path>
            <path d="m.774449.858984c0-.0128858-.0104488-.0233346-.0233346-.0233346s-.0233346.0104488-.0233346.0233346v.0345039c0 .0128858.0104488.0233346.0233346.0233346s.0233346-.0104488.0233346-.0233346z"
                  fill="#000000" style="fill: rgba(241, 6, 6, 0.8);"></path>
            <path d="m.978878.858984c0-.0128858-.0104488-.0233346-.0233346-.0233346s-.0233346.0104488-.0233346.0233346v.0345039c0 .0128858.0104488.0233346.0233346.0233346s.0233346-.0104488.0233346-.0233346z"
                  fill="#000000" style="fill: rgba(241, 6, 6, 0.8);"></path>
        </g>
        <path d="m.32165.783748v.306122h-.17674zm0 .466362c0 .0128858.0104488.0233346.0233346.0233346s.0233346-.0104488.0233346-.0233346v-.113571h.072311c.0128858 0 .0233346-.0104488.0233346-.0233346s-.0104488-.0233346-.0233346-.0233346h-.072311v-.393091c0-.0128858-.0104488-.0233346-.0233346-.0233346-.00923622 0-.0172205.00536614-.021.0131535l-.23963.414941c-.00905512.015689.00251575.0350157.0202047.035h.217091v.113571z"
              fill="#000000" style="fill: rgba(241, 6, 6, 0.8);"></path>
        <path d="m1.48313.783748v.306122h-.17674zm0 .466362c0 .0128858.0104488.0233346.0233346.0233346s.0233346-.0104488.0233346-.0233346v-.113571h.072311c.0128858 0 .0233346-.0104488.0233346-.0233346s-.0104488-.0233346-.0233346-.0233346h-.072311v-.393091c0-.0128858-.0104488-.0233346-.0233346-.0233346-.00923622 0-.0172205.00536614-.021.0131535l-.23963.414941c-.00905512.015689.00251575.0350157.0202047.035h.217091v.113571z"
              fill="#000000" style="fill: rgba(241, 6, 6, 0.8);"></path>
    </g>
</svg>